<!-- Generated by elhizazi -->
<svg version="1.1" xmlns="http://www.w3.org/2000/svg" width="1021" height="1024" viewBox="0 0 1021 1024">
<g id="elhizazi-ignore">
</g>
<path fill="#333" d="M785.613 527.9c-136.569 29.956-316.080-73.598-283.152-290.006l0.519-3.161c-153.048 0.696-277.96 123.37-280.639 276.853-2.716 155.595 121.217 283.932 276.812 286.648 153.317 2.676 280.167-117.615 286.448-269.998l0.012-0.336z"></path>
<path fill="#299e94" d="M737.807 488.173c-109.095-1.904-195.99-91.887-194.086-200.982s91.887-195.99 200.982-194.086c109.095 1.904 195.99 91.887 194.086 200.982s-91.887 195.99-200.982 194.086z"></path>
<path fill="#299e94" d="M793.437 826.109c0.001-0.057 0.002-0.124 0.003-0.191 0.715-40.987-11.312-79.232-32.431-110.955l0.412 0.656c-25.882 33.125-153.734 177.185-369.511 104.834-1.14 108.481 86.898 197.758 197.317 199.685 110.885 1.858 202.306-85.021 204.209-194.029zM81.832 578.014c30.305 21.925 68.111 35.423 109.129 36.274l0.034 0.001c-12.599-40.118-58.761-227.19 123.201-363.791-88.699-62.477-212.156-40.585-276.375 49.301-64.417 90.211-44.71 214.771 44.011 278.215z"></path>
<path fill="#333" d="M376.337 936.357c-142.898-46.474-251.819-159.324-292.42-300.627l-0.775-3.163c-33.489-19.081-61.089-44.612-81.958-75.079l-0.495-0.762c20.207 241.014 207.947 435.661 447.987 464.632-30.247-22.462-54.61-50.915-71.723-83.71l-0.615-1.291zM944.245 418.94c6.958 30.672 10.643 65.809 10.013 101.875-1.996 114.338-47.001 217.836-119.325 295.341l0.36-0.392c0.188 4.72 0.28 9.457 0.196 14.23 0 0.016-0.001 0.035-0.001 0.054-0.603 34.53-8.399 67.247-21.937 96.748l0.635-1.547c124.295-92.383 205.099-237.959 207.983-403.175 1.339-76.734-14.267-149.821-43.372-215.69l1.261 3.192c-3.179 40.866-16.118 78.23-36.438 110.426l0.623-1.062zM205.574 174.393c5.913 0.103 11.763 0.495 17.553 1.022 79.050-67.479 182.733-107.711 295.498-105.743 33.826 0.59 66.703 4.947 98.237 12.664l-2.962-0.617c31.568-19.096 69.142-31.271 109.28-33.611l0.814-0.035c-59.897-28.114-130.096-45.106-204.251-46.4-163.193-2.849-309.89 70.95-405.741 188.225l-0.845 1.072c27.326-11.027 58.987-17.16 92.093-16.583 0.114 0.002 0.228 0.004 0.342 0.006h-0.018z"></path>
</svg>
